<?xml version="1.0" encoding="UTF-8" standalone="no"?>
<!DOCTYPE svg PUBLIC "-//W3C//DTD SVG 1.1//EN" "http://www.w3.org/Graphics/SVG/1.1/DTD/svg11.dtd">
<svg width="100%" height="100%" viewBox="0 0 211 211" version="1.1" xmlns="http://www.w3.org/2000/svg" xmlns:xlink="http://www.w3.org/1999/xlink" xml:space="preserve" xmlns:serif="http://www.serif.com/" style="fill-rule:evenodd;clip-rule:evenodd;stroke-linejoin:round;stroke-miterlimit:2;">
    <g transform="matrix(1.20857,0,0,1.21843,195.957,144.954)">
        <path d="M0,-66.104L0,0.025C0,2.69 -0.567,5.278 -1.623,7.634C-3.193,11.201 -5.885,14.252 -9.374,16.274L-37.353,32.42L-66.645,49.326C-68.808,50.562 -71.138,51.36 -73.521,51.682C-77.356,52.197 -81.297,51.514 -84.812,49.647C-85.005,49.544 -85.211,49.441 -85.404,49.326L-99.22,41.355L-142.662,16.274C-146.151,14.252 -148.842,11.201 -150.426,7.634C-151.481,5.278 -152.048,2.69 -152.048,0.025L-152.048,-66.104C-152.048,-72.799 -148.469,-79.005 -142.662,-82.353L-96.426,-109.057L-88.417,-113.679L-85.404,-115.417C-81.747,-117.529 -77.563,-118.301 -73.521,-117.761C-71.138,-117.439 -68.808,-116.653 -66.645,-115.417L-37.353,-98.512L-9.374,-82.353C-3.567,-79.005 0,-72.799 0,-66.104" style="fill:rgb(4,75,189);fill-rule:nonzero;"/>
    </g>
    <g transform="matrix(1.20857,0,0,1.21843,104.079,10.517)">
        <path d="M0,154.59C-1.684,154.59 -3.345,154.145 -4.802,153.303L-63.425,119.458C-66.387,117.748 -68.227,114.561 -68.227,111.14L-68.227,43.449C-68.227,40.029 -66.386,36.842 -63.425,35.132L-4.802,1.287C-3.344,0.445 -1.684,0 0,0C1.684,0 3.344,0.445 4.802,1.286L63.424,35.132C66.386,36.842 68.227,40.029 68.227,43.449L68.227,111.14C68.227,114.561 66.387,117.748 63.424,119.458L4.802,153.303C3.345,154.145 1.684,154.59 0,154.59" style="fill:rgb(30,78,154);fill-rule:nonzero;"/>
    </g>
    <g transform="matrix(1.20857,0,0,1.21843,177.828,147.396)">
        <path d="M0,-100.496L0,0C-20.067,-6.8 -40.961,-6.8 -61.016,0L-61.016,-8.5C-42.835,-14.202 -23.931,-14.202 -5.75,-8.5L-5.75,-100.496L0,-100.496Z" style="fill:rgb(86,84,140);fill-rule:nonzero;"/>
    </g>
    <g transform="matrix(1.20857,0,0,1.21843,104.087,35.3047)">
        <path d="M0,83.496L0,91.996C-20.08,85.196 -40.961,85.196 -61.028,91.996L-61.028,-8.5L-55.278,-8.5L-55.278,83.496C-37.098,77.794 -18.181,77.794 -0.013,83.496L0,83.496Z" style="fill:rgb(70,70,124);fill-rule:nonzero;"/>
    </g>
    <g transform="matrix(1.20857,0,0,1.21843,104.071,11.9755)">
        <path d="M0,102.643L0,5.685C18.181,0 37.098,0 55.278,5.685L55.278,102.643C37.098,96.941 18.193,96.941 0.013,102.643L0,102.643Z" style="fill:rgb(228,232,234);fill-rule:nonzero;"/>
    </g>
    <g transform="matrix(1.20857,0,0,1.21843,104.071,130.113)">
        <path d="M0,-91.274L0,5.684C-18.168,-0.017 -37.085,-0.017 -55.266,5.684L-55.266,-91.274C-37.085,-96.958 -18.168,-96.958 0,-91.274" style="fill:rgb(249,251,252);fill-rule:nonzero;"/>
    </g>
    <g transform="matrix(0,1.21843,1.20857,0,72.5172,94.5666)">
        <path d="M26.109,-29.157L34.858,-29.157C29.156,-10.976 29.156,7.941 34.858,26.109L26.109,26.109C20.408,7.941 20.408,-10.976 26.109,-29.157" style="fill:rgb(228,232,234);fill-rule:nonzero;"/>
    </g>
    <g transform="matrix(0,1.21843,1.20857,0,139.309,161.904)">
        <path d="M-29.157,26.109L-20.408,26.109C-26.11,7.928 -26.11,-10.989 -20.408,-29.157L-29.157,-29.157C-34.858,-10.989 -34.858,7.928 -29.157,26.109" style="fill:rgb(206,213,216);fill-rule:nonzero;"/>
    </g>
    <g transform="matrix(0.0378603,-1.21783,-1.20797,-0.0381692,73.9206,0.639553)">
        <path d="M-21.038,-17.566C-18.582,-4.491 -18.995,8.681 -22.264,21.577L-21.038,21.889C-17.721,8.811 -17.303,-4.541 -19.794,-17.8L-21.038,-17.566Z" style="fill:rgb(86,84,140);fill-rule:nonzero;"/>
    </g>
    <g transform="matrix(0.0378603,-1.21783,-1.20797,-0.0381692,73.9206,13.0553)">
        <path d="M-21.038,-17.566C-18.582,-4.491 -18.995,8.681 -22.264,21.577L-21.038,21.889C-17.721,8.811 -17.303,-4.541 -19.794,-17.8L-21.038,-17.566Z" style="fill:rgb(86,84,140);fill-rule:nonzero;"/>
    </g>
    <g transform="matrix(0.0378603,-1.21783,-1.20797,-0.0381692,73.9206,25.471)">
        <path d="M-21.038,-17.566C-18.582,-4.491 -18.995,8.681 -22.264,21.577L-21.038,21.889C-17.721,8.811 -17.303,-4.541 -19.794,-17.8L-21.038,-17.566Z" style="fill:rgb(86,84,140);fill-rule:nonzero;"/>
    </g>
    <g transform="matrix(0.0378603,-1.21783,-1.20797,-0.0381692,73.9206,37.8867)">
        <path d="M-21.038,-17.566C-18.582,-4.491 -18.995,8.681 -22.264,21.577L-21.038,21.889C-17.721,8.811 -17.303,-4.541 -19.794,-17.8L-21.038,-17.566Z" style="fill:rgb(86,84,140);fill-rule:nonzero;"/>
    </g>
    <g transform="matrix(0.0378603,-1.21783,-1.20797,-0.0381692,73.9206,50.3025)">
        <path d="M-21.038,-17.566C-18.582,-4.491 -18.995,8.681 -22.264,21.577L-21.038,21.889C-17.721,8.811 -17.303,-4.541 -19.794,-17.8L-21.038,-17.566Z" style="fill:rgb(86,84,140);fill-rule:nonzero;"/>
    </g>
    <g transform="matrix(0.0378603,-1.21783,-1.20797,-0.0381692,73.9206,62.7175)">
        <path d="M-21.038,-17.566C-18.582,-4.491 -18.995,8.681 -22.264,21.577L-21.038,21.889C-17.721,8.811 -17.303,-4.541 -19.794,-17.8L-21.038,-17.566Z" style="fill:rgb(86,84,140);fill-rule:nonzero;"/>
    </g>
    <g transform="matrix(0.0378603,-1.21783,-1.20797,-0.0381692,73.9206,75.1333)">
        <path d="M-21.038,-17.566C-18.582,-4.491 -18.995,8.681 -22.264,21.577L-21.038,21.889C-17.721,8.811 -17.303,-4.541 -19.794,-17.8L-21.038,-17.566Z" style="fill:rgb(86,84,140);fill-rule:nonzero;"/>
    </g>
    <g transform="matrix(0.0378603,-1.21783,-1.20797,-0.0381692,73.9206,87.549)">
        <path d="M-21.038,-17.566C-18.582,-4.491 -18.995,8.681 -22.264,21.577L-21.038,21.889C-17.721,8.811 -17.303,-4.541 -19.794,-17.8L-21.038,-17.566Z" style="fill:rgb(86,84,140);fill-rule:nonzero;"/>
    </g>
    <g transform="matrix(0.0378603,-1.21783,-1.20797,-0.0381692,140.718,0.639553)">
        <path d="M-21.038,-17.566C-18.582,-4.491 -18.995,8.681 -22.264,21.577L-21.038,21.889C-17.721,8.811 -17.303,-4.541 -19.794,-17.8L-21.038,-17.566Z" style="fill:rgb(86,84,140);fill-rule:nonzero;"/>
    </g>
    <g transform="matrix(0.0378603,-1.21783,-1.20797,-0.0381692,140.718,13.0553)">
        <path d="M-21.038,-17.566C-18.582,-4.491 -18.995,8.681 -22.264,21.577L-21.038,21.889C-17.721,8.811 -17.303,-4.541 -19.794,-17.8L-21.038,-17.566Z" style="fill:rgb(86,84,140);fill-rule:nonzero;"/>
    </g>
    <g transform="matrix(0.0378603,-1.21783,-1.20797,-0.0381692,140.718,25.471)">
        <path d="M-21.038,-17.566C-18.582,-4.491 -18.995,8.681 -22.264,21.577L-21.038,21.889C-17.721,8.811 -17.303,-4.541 -19.794,-17.8L-21.038,-17.566Z" style="fill:rgb(86,84,140);fill-rule:nonzero;"/>
    </g>
    <g transform="matrix(0.0378603,-1.21783,-1.20797,-0.0381692,140.718,37.8867)">
        <path d="M-21.038,-17.566C-18.582,-4.491 -18.995,8.681 -22.264,21.577L-21.038,21.889C-17.721,8.811 -17.303,-4.541 -19.794,-17.8L-21.038,-17.566Z" style="fill:rgb(86,84,140);fill-rule:nonzero;"/>
    </g>
    <g transform="matrix(0.0378603,-1.21783,-1.20797,-0.0381692,140.718,50.3025)">
        <path d="M-21.038,-17.566C-18.582,-4.491 -18.995,8.681 -22.264,21.577L-21.038,21.889C-17.721,8.811 -17.303,-4.541 -19.794,-17.8L-21.038,-17.566Z" style="fill:rgb(86,84,140);fill-rule:nonzero;"/>
    </g>
    <g transform="matrix(0.0378603,-1.21783,-1.20797,-0.0381692,140.718,62.7175)">
        <path d="M-21.038,-17.566C-18.582,-4.491 -18.995,8.681 -22.264,21.577L-21.038,21.889C-17.721,8.811 -17.303,-4.541 -19.794,-17.8L-21.038,-17.566Z" style="fill:rgb(86,84,140);fill-rule:nonzero;"/>
    </g>
    <g transform="matrix(0.0378603,-1.21783,-1.20797,-0.0381692,140.718,75.1333)">
        <path d="M-21.038,-17.566C-18.582,-4.491 -18.995,8.681 -22.264,21.577L-21.038,21.889C-17.721,8.811 -17.303,-4.541 -19.794,-17.8L-21.038,-17.566Z" style="fill:rgb(86,84,140);fill-rule:nonzero;"/>
    </g>
    <g transform="matrix(0.0378603,-1.21783,-1.20797,-0.0381692,140.718,87.549)">
        <path d="M-21.038,-17.566C-18.582,-4.491 -18.995,8.681 -22.264,21.577L-21.038,21.889C-17.721,8.811 -17.303,-4.541 -19.794,-17.8L-21.038,-17.566Z" style="fill:rgb(86,84,140);fill-rule:nonzero;"/>
    </g>
    <g transform="matrix(1.20857,0,0,1.21843,160.876,160.914)">
        <path d="M0,-2.01C0,-4.69 -2.156,-6.845 -4.836,-6.845L-9.568,-6.845L-21.657,-6.86L-77.47,-6.86L-88.933,-2.84L-88.933,0.831L-77.47,4.85L-4.821,4.85C-2.171,4.85 0,2.68 0.015,0.015L0,-2.01Z" style="fill:rgb(238,226,210);fill-rule:nonzero;"/>
    </g>
    <g transform="matrix(1.20857,0,0,1.21843,155.032,166.824)">
        <path d="M0,-11.696C2.68,-11.696 4.836,-9.541 4.836,-6.861L4.851,-4.836C4.836,-2.171 2.665,0 0.015,0L-4.718,0L-4.732,-1.733L-4.732,-7.326L-4.718,-10.109L-4.732,-11.696L0,-11.696Z" style="fill:rgb(244,154,154);fill-rule:nonzero;"/>
    </g>
    <g transform="matrix(1.20857,0.00151182,0.00149959,-1.21843,134.703,152.546)">
        <rect x="-0.001" y="-1.594" width="12.106" height="1.587" style="fill:rgb(251,209,91);"/>
    </g>
    <g transform="matrix(-0.00651627,1.21841,1.20855,0.00656944,143.666,163.594)">
        <path d="M-7.483,4.646L-4.701,4.646L-4.621,-7.443L-7.418,-7.458L-7.483,4.646Z" style="fill:rgb(226,177,55);fill-rule:nonzero;"/>
    </g>
    <g transform="matrix(1.20857,0,0,1.21843,134.702,159.689)">
        <rect x="-55.813" y="-5.855" width="55.813" height="5.855" style="fill:rgb(86,84,140);fill-rule:nonzero;"/>
    </g>
    <g transform="matrix(1.20857,0,0,1.21843,67.2488,166.823)">
        <path d="M0,-11.71L0,0L-11.463,-4.019L-11.463,-7.69L0,-11.71Z" style="fill:rgb(255,200,175);fill-rule:nonzero;"/>
    </g>
</svg>
