<?xml version="1.0" encoding="UTF-8" standalone="no"?>
<!DOCTYPE svg PUBLIC "-//W3C//DTD SVG 1.1//EN" "http://www.w3.org/Graphics/SVG/1.1/DTD/svg11.dtd">
<svg width="100%" height="100%" viewBox="0 0 211 211" version="1.1" xmlns="http://www.w3.org/2000/svg" xmlns:xlink="http://www.w3.org/1999/xlink" xml:space="preserve" xmlns:serif="http://www.serif.com/" style="fill-rule:evenodd;clip-rule:evenodd;stroke-linejoin:round;stroke-miterlimit:2;">
    <g transform="matrix(9.26434,-3.33067e-16,5.55112e-17,8.39157,7.04402,-804.07)">
        <path id="Rocket" d="M14.473,106.854C13.057,107.073 11.856,105.859 12.072,104.43C12.207,103.539 12.928,102.81 13.811,102.674C15.226,102.455 16.428,103.669 16.211,105.099C16.076,105.989 15.355,106.718 14.473,106.854ZM20.867,97.169C21.054,98.219 21.761,104.012 16.26,110.757C15.685,111.463 15.045,112.069 14.381,112.592C14.321,112.639 14.293,112.712 14.308,112.787C14.504,113.776 14.746,115.764 13.843,116.909C11.982,119.271 9.269,119.864 8.403,119.997C8.261,120.019 8.14,119.899 8.154,119.755C8.154,119.755 8.524,116.137 8.6,115.361C8.607,115.288 8.545,115.226 8.472,115.237C8.046,115.295 7.397,115.374 7.218,115.331C6.945,115.267 4.908,113.558 4.8,113.296C4.728,113.123 4.708,112.475 4.703,112.057C4.702,111.99 4.638,111.942 4.574,111.959L0.239,113.114C0.119,113.146 0.002,113.057 0,112.932C-0.007,112.093 0.131,109.243 2.188,106.989C3.196,105.884 5.255,105.848 6.224,105.898C6.3,105.902 6.367,105.863 6.405,105.796C6.86,104.979 7.424,104.178 8.121,103.449C13.893,97.421 19.615,97.021 20.663,97C20.765,96.998 20.85,97.068 20.867,97.169ZM6.717,115.949C7.05,116.028 6.911,116.976 6.288,117.696C5.914,118.128 5.369,118.47 4.784,118.621C3.483,118.957 2.282,118.756 2.282,118.756C2.282,118.756 1.902,117.581 2.031,116.232C2.089,115.624 2.34,115.028 2.705,114.588C3.313,113.855 4.22,113.572 4.348,113.891C4.558,114.417 3.931,114.327 3.678,115.554C3.483,116.503 3.805,116.932 3.799,116.948C3.811,116.942 4.278,117.199 5.177,116.858C6.338,116.418 6.171,115.82 6.717,115.949Z" style="fill:rgb(26,114,255);"/>
    </g>
</svg>
