<?xml version="1.0" encoding="UTF-8" standalone="no"?>
<!DOCTYPE svg PUBLIC "-//W3C//DTD SVG 1.1//EN" "http://www.w3.org/Graphics/SVG/1.1/DTD/svg11.dtd">
<svg width="100%" height="100%" viewBox="0 0 800 600" version="1.1" xmlns="http://www.w3.org/2000/svg" xmlns:xlink="http://www.w3.org/1999/xlink" xml:space="preserve" xmlns:serif="http://www.serif.com/" style="fill-rule:evenodd;clip-rule:evenodd;stroke-miterlimit:10;">
    <g transform="matrix(3.83969,0,0,3.83969,-1135.88,-1320.53)">
        <g id="Board" transform="matrix(0.467886,0,0,0.467886,281.274,303.468)">
            <g transform="matrix(1,0,0,1,350,272.481)">
                <path d="M0,105.04L0,-5.48L-11,-5.48L-11,105.04L-18,107.191L-18,110.52L7,110.52L7,107.191L0,105.04Z" style="fill:rgb(38,50,55);fill-rule:nonzero;"/>
            </g>
            <g transform="matrix(1,0,0,1,210,383)">
                <path d="M0,-116L-11,-116L-11,-5.479L-18,-3.329L-18,0L7,0L7,-3.329L0,-5.48L0,-116Z" style="fill:rgb(38,50,55);fill-rule:nonzero;"/>
            </g>
            <g opacity="0.2">
                <g transform="matrix(1,0,0,1,350,383)">
                    <path d="M0,-103L-11,-103L-11,-5.479L-18,-3.329L-18,0L7,0L7,-3.329L0,-5.48L0,-103Z" style="fill:white;fill-rule:nonzero;"/>
                </g>
                <g transform="matrix(1,0,0,1,210,383)">
                    <path d="M0,-103L-11,-103L-11,-5.479L-18,-3.329L-18,0L7,0L7,-3.329L0,-5.48L0,-103Z" style="fill:white;fill-rule:nonzero;"/>
                </g>
            </g>
            <g transform="matrix(1,0,0,1,0,-136)">
                <rect x="165" y="229" width="219" height="178" style="fill:rgb(38,50,55);"/>
            </g>
            <g opacity="0.2">
                <g transform="matrix(1,0,0,1,0,-136)">
                    <rect x="165" y="229" width="219" height="178" style="fill:white;"/>
                </g>
            </g>
            <g transform="matrix(-1,0,0,1,548.999,-136.096)">
                <rect x="169.868" y="234.037" width="209.263" height="168.022" style="fill:rgb(0,124,255);"/>
            </g>
            <g opacity="0.3">
                <g transform="matrix(1,0,0,-1,0,500)">
                    <rect x="169.868" y="234.037" width="209.263" height="168.022" style="fill:white;"/>
                </g>
            </g>
            <g transform="matrix(1,0,0,1,193.5,158.5)">
                <path d="M0,-45.5L0,0L72.508,0L0,-45.5Z" style="fill:none;fill-rule:nonzero;stroke:rgb(26,46,53);stroke-width:0.42px;"/>
            </g>
            <g transform="matrix(1,0,0,1,197.139,154.896)">
                <path d="M0,3.719L0,0L-3.719,0" style="fill:none;fill-rule:nonzero;stroke:rgb(26,46,53);stroke-width:0.33px;"/>
            </g>
            <g transform="matrix(0.421818,0,0,0.421818,228.989,125.518)">
                <text x="0px" y="0px" style="font-family:'ArialMT', 'Arial', sans-serif;font-size:9.52px;fill:rgb(26,46,53);">b</text>
            </g>
            <g transform="matrix(0.421818,0,0,0.421818,193.814,194.221)">
                <text x="0px" y="0px" style="font-family:'ArialMT', 'Arial', sans-serif;font-size:9.52px;fill:rgb(26,46,53);">b</text>
            </g>
            <g transform="matrix(0.421818,0,0,0.421818,219.002,163.834)">
                <text x="0px" y="0px" style="font-family:'ArialMT', 'Arial', sans-serif;font-size:9.52px;fill:rgb(26,46,53);">c</text>
            </g>
            <g transform="matrix(0.421818,0,0,0.421818,193.814,208.187)">
                <text x="0px" y="0px" style="font-family:'ArialMT', 'Arial', sans-serif;font-size:9.52px;fill:rgb(26,46,53);">c</text>
            </g>
            <g transform="matrix(0.421818,0,0,0.421818,185.437,136.342)">
                <text x="0px" y="0px" style="font-family:'ArialMT', 'Arial', sans-serif;font-size:9.52px;fill:rgb(26,46,53);">a</text>
            </g>
            <g transform="matrix(0.421818,0,0,0.421818,193.814,180.237)">
                <text x="0px" y="0px" style="font-family:'ArialMT', 'Arial', sans-serif;font-size:9.52px;fill:rgb(26,46,53);">a</text>
            </g>
            <g transform="matrix(1,0,0,1,283,113.5)">
                <path d="M0,0L40,0" style="fill:none;fill-rule:nonzero;stroke:rgb(26,46,53);stroke-width:0.42px;"/>
            </g>
            <g transform="matrix(1,0,0,1,283,121.5)">
                <path d="M0,0L22,0" style="fill:none;fill-rule:nonzero;stroke:rgb(26,46,53);stroke-width:0.42px;"/>
            </g>
            <g transform="matrix(1,0,0,1,283,127.5)">
                <path d="M0,0L31,0" style="fill:none;fill-rule:nonzero;stroke:rgb(26,46,53);stroke-width:0.42px;"/>
            </g>
            <g transform="matrix(1,0,0,1,283,134.5)">
                <path d="M0,0L26,0" style="fill:none;fill-rule:nonzero;stroke:rgb(26,46,53);stroke-width:0.42px;"/>
            </g>
            <g transform="matrix(1,0,0,1,283,142.5)">
                <path d="M0,0L39,0" style="fill:none;fill-rule:nonzero;stroke:rgb(26,46,53);stroke-width:0.42px;"/>
            </g>
            <g transform="matrix(1,0,0,1,283,149.5)">
                <path d="M0,0L38,0" style="fill:none;fill-rule:nonzero;stroke:rgb(26,46,53);stroke-width:0.42px;"/>
            </g>
            <g transform="matrix(1,0,0,1,283,156.5)">
                <path d="M0,0L26,0" style="fill:none;fill-rule:nonzero;stroke:rgb(26,46,53);stroke-width:0.42px;"/>
            </g>
            <g transform="matrix(1,0,0,1,328,217.5)">
                <path d="M0,0L27,0" style="fill:none;fill-rule:nonzero;stroke:rgb(26,46,53);stroke-width:0.42px;"/>
            </g>
            <g transform="matrix(1,0,0,1,328,225.5)">
                <path d="M0,0L15,0" style="fill:none;fill-rule:nonzero;stroke:rgb(26,46,53);stroke-width:0.42px;"/>
            </g>
            <g transform="matrix(1,0,0,1,328,231.5)">
                <path d="M0,0L21,0" style="fill:none;fill-rule:nonzero;stroke:rgb(26,46,53);stroke-width:0.42px;"/>
            </g>
            <g transform="matrix(1,0,0,1,328,238.5)">
                <path d="M0,0L18,0" style="fill:none;fill-rule:nonzero;stroke:rgb(26,46,53);stroke-width:0.42px;"/>
            </g>
            <g transform="matrix(1,0,0,1,191,230.5)">
                <path d="M0,0L27,0" style="fill:none;fill-rule:nonzero;stroke:rgb(26,46,53);stroke-width:0.42px;"/>
            </g>
            <g transform="matrix(1,0,0,1,191,238.5)">
                <path d="M0,0L15,0" style="fill:none;fill-rule:nonzero;stroke:rgb(26,46,53);stroke-width:0.42px;"/>
            </g>
            <g transform="matrix(1,0,0,1,191,244.5)">
                <path d="M0,0L21,0" style="fill:none;fill-rule:nonzero;stroke:rgb(26,46,53);stroke-width:0.42px;"/>
            </g>
            <g transform="matrix(1,0,0,1,191,251.5)">
                <path d="M0,0L18,0" style="fill:none;fill-rule:nonzero;stroke:rgb(26,46,53);stroke-width:0.42px;"/>
            </g>
            <g transform="matrix(1,0,0,1,336,127.5)">
                <path d="M0,0L26,0" style="fill:none;fill-rule:nonzero;stroke:rgb(26,46,53);stroke-width:0.42px;"/>
            </g>
            <g transform="matrix(1,0,0,1,336,134.5)">
                <path d="M0,0L26,0" style="fill:none;fill-rule:nonzero;stroke:rgb(26,46,53);stroke-width:0.42px;"/>
            </g>
            <g transform="matrix(1,0,0,1,336,141.5)">
                <path d="M0,0L18,0" style="fill:none;fill-rule:nonzero;stroke:rgb(26,46,53);stroke-width:0.42px;"/>
            </g>
            <g transform="matrix(1,0,0,1,259,230.5)">
                <path d="M0,0L26,0" style="fill:none;fill-rule:nonzero;stroke:rgb(26,46,53);stroke-width:0.42px;"/>
            </g>
            <g transform="matrix(1,0,0,1,259,237.5)">
                <path d="M0,0L26,0" style="fill:none;fill-rule:nonzero;stroke:rgb(26,46,53);stroke-width:0.42px;"/>
            </g>
            <g transform="matrix(1,0,0,1,259,244.5)">
                <path d="M0,0L18,0" style="fill:none;fill-rule:nonzero;stroke:rgb(26,46,53);stroke-width:0.42px;"/>
            </g>
            <g transform="matrix(1,0,0,1,210,184.5)">
                <path d="M0,0L58,0" style="fill:none;fill-rule:nonzero;stroke:rgb(26,46,53);stroke-width:0.42px;"/>
            </g>
            <g transform="matrix(1,0,0,1,210,197.5)">
                <path d="M0,0L58,0" style="fill:none;fill-rule:nonzero;stroke:rgb(26,46,53);stroke-width:0.42px;"/>
            </g>
            <g transform="matrix(1,0,0,1,210,210.5)">
                <path d="M0,0L58,0" style="fill:none;fill-rule:nonzero;stroke:rgb(26,46,53);stroke-width:0.42px;"/>
            </g>
            <g transform="matrix(0,-1,-1,0,306.466,181.065)">
                <circle cx="-18.246" cy="0" r="18.246" style="fill:none;stroke:rgb(26,46,53);stroke-width:0.33px;"/>
            </g>
            <g transform="matrix(1,0,0,1,306.5,199.5)">
                <path d="M0,-18.5L0,0L18.5,0" style="fill:none;fill-rule:nonzero;stroke:rgb(26,46,53);stroke-width:0.42px;"/>
            </g>
            <g opacity="0.6">
                <g transform="matrix(1,0,0,-1,0,500)">
                    <rect x="169.868" y="234.037" width="209.263" height="168.022" style="fill:white;"/>
                </g>
            </g>
        </g>
        <g id="Teacher" transform="matrix(0.467886,0,0,0.467886,281.274,303.468)">
            <g transform="matrix(1,0,0,1,300.265,167.183)">
                <path d="M0,21.432L-15.443,12.457C-15.443,12.457 -18.841,12.799 -22.813,12.115C-26.786,11.43 -27.675,11.388 -27.195,8.241C-26.715,5.093 -27.382,0.891 -26.194,0.445C-25.005,0 -16.586,3.561 -15.128,5.964L0.459,11.541L0,21.432Z" style="fill:rgb(205,122,99);fill-rule:nonzero;"/>
            </g>
            <g transform="matrix(1,0,0,1,346,197.1)">
                <path d="M0,-23.73L0,-5.72C0,-5.72 -3.84,-4.45 -8.61,-3.12C-14.08,-1.6 -20.77,0 -24.25,-0.17C-30.75,-0.49 -52.75,-11.91 -52.75,-11.91L-48.75,-19.53C-48.75,-19.53 -24.75,-11.35 -21.75,-11.94C-18.75,-12.53 0,-23.73 0,-23.73" style="fill:rgb(0,124,255);fill-rule:nonzero;"/>
            </g>
            <g opacity="0.2">
                <g transform="matrix(1,0,0,1,346,193.98)">
                    <path d="M0,-11.84L0,-2.6C0,-2.6 -3.84,-1.33 -8.61,0C-6.85,-5.36 -2.46,-9.73 0,-11.84" style="fill-rule:nonzero;"/>
                </g>
            </g>
            <g transform="matrix(1,0,0,1,350.039,396.718)">
                <path d="M0,-159.279C0,-159.279 -10.838,-101.514 -13.73,-77.798C-17.508,-46.859 -32.957,-1.597 -32.957,-1.597L-26.78,0C-26.78,0 -4.999,-38.462 -0.753,-73.071C16.548,-108.44 17.945,-151.994 17.945,-151.994L0,-159.279Z" style="fill:rgb(205,122,99);fill-rule:nonzero;"/>
            </g>
            <g transform="matrix(1,0,0,1,305.58,401.545)">
                <path d="M0,7.578C1,7.118 2.075,6.845 3.174,6.772C3.174,6.772 6.971,4.536 10.736,-4.149L14.969,-4.173C16.434,-4.156 17.733,-3.226 18.221,-1.844C18.29,-1.656 18.331,-1.458 18.341,-1.258C18.298,-0.235 18.189,0.784 18.016,1.793C17.635,4.959 15.541,11.751 15.541,11.751L14.824,11.569L16.128,5.253C16.561,3.106 14.307,5.18 13.261,7.344C12.215,9.507 10.611,11.685 5.936,10.617C0.488,9.343 -1.708,8.558 0,7.578" style="fill:rgb(38,50,55);fill-rule:nonzero;"/>
            </g>
            <g transform="matrix(1,0,0,1,361.294,397.891)">
                <path d="M0,-161.374C0,-161.374 1.345,-102.617 3.421,-78.815C6.124,-47.764 0.371,-0.285 0.371,-0.285L6.744,0C6.744,0 20.099,-42.136 17.095,-76.875C26.706,-115.057 19.063,-157.958 19.063,-157.958L0,-161.374Z" style="fill:rgb(205,122,99);fill-rule:nonzero;"/>
            </g>
            <g transform="matrix(1,0,0,1,351.745,400.552)">
                <path d="M0,10.505C0.944,9.94 1.984,9.552 3.068,9.36C3.068,9.36 6.602,6.727 9.406,-2.313L13.611,-2.795C15.07,-2.937 16.462,-2.152 17.096,-0.831C17.185,-0.651 17.247,-0.459 17.278,-0.261C17.346,0.76 17.349,1.785 17.285,2.806C17.248,5.996 15.901,12.974 15.901,12.974L15.168,12.87L15.782,6.45C15.981,4.27 13.964,6.574 13.158,8.839C12.352,11.103 10.992,13.442 6.229,12.884C0.676,12.207 -1.592,11.664 0,10.505" style="fill:rgb(38,50,55);fill-rule:nonzero;"/>
            </g>
            <g transform="matrix(1,0,0,1,382.826,183.414)">
                <path d="M0,-46.833C0,-46.833 3.174,-46.662 5.84,-41.455C8.507,-36.247 5.174,-30.463 4.507,-27.688C3.84,-24.914 0.507,-22.467 6.007,-18.274C11.507,-14.081 14.8,-9.636 10.34,-5.102C5.881,-0.568 10.784,2.919 4.312,6.253C-2.16,9.586 -25.826,4.586 -28.826,-1.914C-31.826,-8.414 -28.206,-13.35 -28.016,-15.299C-27.826,-17.247 -31.826,-19.227 -32.826,-25.57C-33.826,-31.914 -28.706,-33.282 -28.016,-36.181C-27.326,-39.081 -30.54,-42.747 -28.016,-48.914C-25.493,-55.081 -0.341,-56.419 0,-46.833" style="fill:rgb(38,50,55);fill-rule:nonzero;"/>
            </g>
            <g transform="matrix(1,0,0,1,398.8,178.06)">
                <path d="M0,45.03C-3.79,45.52 -8.175,38.12 -11.345,31.22C-14.045,25.37 -15.937,19.87 -15.937,19.87L-13.944,14.23L-8.722,-0.49C-8.722,-0.49 -5.066,4.6 0.424,23.98C1.304,27.1 2.362,30.59 3.332,34.49C3.332,34.49 3.2,35.66 4.2,37.24L4.2,37.25C4.2,40.17 4.55,44.44 0,45.03" style="fill:rgb(0,124,255);fill-rule:nonzero;"/>
            </g>
            <g opacity="0.2">
                <g transform="matrix(1,0,0,1,387.39,192.29)">
                    <path d="M0,16.99C-2.7,11.14 -4.56,5.64 -4.56,5.64L-2.55,0C-1.16,3.9 0.89,10.97 0,16.99" style="fill-rule:nonzero;"/>
                </g>
            </g>
            <g opacity="0.2">
                <g transform="matrix(1,0,0,1,403,203.37)">
                    <path d="M0,11.93L0,11.94C-2,13.26 -4.09,13.24 -5.26,10.83C-7.63,5.96 -5.345,1.14 -3.715,-1.33C-2.835,1.79 -1.807,5.28 -0.837,9.18C-0.837,9.18 -1,10.35 0,11.93" style="fill-rule:nonzero;"/>
                </g>
            </g>
            <g transform="matrix(1,0,0,1,343.336,202.167)">
                <path d="M0,19C0,19 19.954,26.167 39.059,24.833C39.059,24.833 37.33,1.231 27.33,-2.968C17.33,-7.167 0.003,-1.167 0,19" style="fill:rgb(0,124,255);fill-rule:nonzero;"/>
            </g>
            <g opacity="0.2">
                <g transform="matrix(1,0,0,1,343.336,202.167)">
                    <path d="M0,19C0,19 19.954,26.167 39.059,24.833C39.059,24.833 37.33,1.231 27.33,-2.968C17.33,-7.167 0.003,-1.167 0,19" style="fill-rule:nonzero;"/>
                </g>
            </g>
            <g transform="matrix(1,0,0,1,346.17,175.5)">
                <path d="M0,47.35L33.01,50.2C33.53,42 34.05,35.74 36.52,25.96C37.31,22.8 38.3,19.27 39.57,15.19C40.25,13.01 41,10.67 41.84,8.15C42.47,6.24 43.15,4.21 43.9,2.07C39.41,0.64 34.84,-0.47 30.2,-1.24C25.31,-2.11 20.35,-2.63 15.38,-2.8C8.96,-2.85 1.58,-2.13 1.58,-2.13C1.58,-2.13 0.53,-1.88 -0.13,4.93C-0.73,11.32 -1.32,24.1 0,47.35" style="fill:rgb(0,124,255);fill-rule:nonzero;"/>
            </g>
            <g transform="matrix(1,0,0,1,346.328,175.371)">
                <path d="M0,52.428L32.982,55.149C33.502,46.949 33.892,35.869 36.362,26.089C37.152,22.929 38.142,19.399 39.412,15.319C40.092,13.139 40.842,10.799 41.682,8.279C42.312,6.369 42.992,4.339 43.742,2.199C39.252,0.769 34.682,-0.341 30.042,-1.111C25.152,-1.981 20.192,-2.501 15.222,-2.671C8.802,-2.721 1.422,-2.001 1.422,-2.001C1.422,-2.001 0.372,-1.751 -0.288,5.059C-0.888,11.449 -1.32,29.178 0,52.428" style="fill:rgb(38,50,55);fill-rule:nonzero;"/>
            </g>
            <g transform="matrix(1,0,0,1,364.274,162.165)">
                <path d="M0,17.824C8.135,16.783 10.579,13.308 10.579,13.308C5.418,8.438 9.706,0 9.706,0L-0.086,1.828C0.172,3.446 0.281,4.804 0.297,5.95C0.371,11.893 -2.316,11.951 -2.316,11.951C-4.035,15.171 0,17.824 0,17.824" style="fill:rgb(205,122,99);fill-rule:nonzero;"/>
            </g>
            <g opacity="0.2">
                <g transform="matrix(1,0,0,1,364.188,166.287)">
                    <path d="M0,-2.294C0.257,-0.676 0.367,0.682 0.383,1.828C6.997,1.828 9.792,-4.122 9.792,-4.122L0,-2.294Z" style="fill-rule:nonzero;"/>
                </g>
            </g>
            <g transform="matrix(1,0,0,1,369.601,167.666)">
                <path d="M0,-31.051C-8.512,-31.517 -11.501,-27.11 -12.605,-18.373C-13.984,-7.455 -11.98,0.466 -1.21,-1.292C13.418,-3.68 14.135,-30.277 0,-31.051" style="fill:rgb(205,122,99);fill-rule:nonzero;"/>
            </g>
            <g transform="matrix(1,0,0,1,362.525,153.71)">
                <path d="M0,-4.592C0,-4.592 -1.301,-2.433 -2.67,-1.197C-2.67,-1.197 -2.005,0 -0.479,-0.112L0,-4.592Z" style="fill:rgb(185,77,60);fill-rule:nonzero;"/>
            </g>
            <g transform="matrix(-0.078053,0.996949,0.996949,0.078053,368.747,147.938)">
                <path d="M0.843,-0.912C1.543,-0.912 2.111,-0.532 2.111,-0.066C2.111,0.401 1.543,0.779 0.843,0.78C0.143,0.78 -0.425,0.401 -0.425,-0.066C-0.425,-0.532 0.143,-0.911 0.843,-0.912" style="fill:rgb(38,50,55);fill-rule:nonzero;"/>
            </g>
            <g transform="matrix(1,0,0,1,368.906,147.466)">
                <path d="M0,0.092L-1.472,-0.623C-1.472,-0.623 -0.816,0.715 0,0.092" style="fill:rgb(38,50,55);fill-rule:nonzero;"/>
            </g>
            <g transform="matrix(-0.078053,0.996949,0.996949,0.078053,360.077,147.114)">
                <path d="M0.842,-0.911C1.543,-0.911 2.111,-0.533 2.11,-0.066C2.111,0.401 1.543,0.78 0.842,0.78C0.142,0.779 -0.426,0.401 -0.425,-0.065C-0.426,-0.533 0.142,-0.911 0.842,-0.911" style="fill:rgb(38,50,55);fill-rule:nonzero;"/>
            </g>
            <g transform="matrix(1,0,0,1,360.237,146.642)">
                <path d="M0,0.091L-1.472,-0.623C-1.472,-0.623 -0.816,0.714 0,0.091" style="fill:rgb(38,50,55);fill-rule:nonzero;"/>
            </g>
            <g transform="matrix(0.924858,0.380313,0.380313,-0.924858,368.565,142.195)">
                <path d="M-0.113,-0.738C-0.113,-0.738 2.047,0.345 3.802,-0.738" style="fill:none;fill-rule:nonzero;stroke:rgb(38,50,55);stroke-width:0.31px;stroke-linecap:round;stroke-linejoin:round;"/>
            </g>
            <g transform="matrix(-0.988964,0.148157,0.148157,0.988964,358.592,142.266)">
                <path d="M-3.403,0.378C-3.403,0.378 -2.041,-0.472 0.066,0.378" style="fill:none;fill-rule:nonzero;stroke:rgb(38,50,55);stroke-width:0.31px;stroke-linecap:round;stroke-linejoin:round;"/>
            </g>
            <g transform="matrix(1,0,0,1,363.103,158.736)">
                <path d="M0,-1.721C0.436,-0.668 0.831,1.289 0.831,1.289C1.015,1.286 1.199,1.282 1.382,1.268C3.873,1.154 4.991,0.277 5.474,-0.659C5.737,-1.172 5.804,-1.71 5.801,-2.146C5.803,-2.65 5.689,-3.01 5.689,-3.01C4.405,-2.16 2.091,-1.874 0.849,-1.773C0.329,-1.726 0,-1.721 0,-1.721" style="fill:rgb(38,50,55);fill-rule:nonzero;"/>
            </g>
            <g transform="matrix(0.291032,0.956713,0.956713,-0.291032,365.538,154.467)">
                <path d="M1.926,-2.244L2.847,-2.244C3.421,0.033 3.52,1.714 3.011,2.603C2.529,2.751 2.152,2.747 2.152,2.747C2.591,1.272 2.191,-1.026 1.926,-2.244" style="fill:white;fill-rule:nonzero;"/>
            </g>
            <g transform="matrix(1,0,0,1,364.485,158.076)">
                <path d="M0,1.928C2.491,1.813 3.609,0.937 4.093,0C3.245,0.072 2.231,0.253 1.352,0.676C0.678,0.997 0.266,1.463 0,1.928" style="fill:rgb(254,86,82);fill-rule:nonzero;"/>
            </g>
            <g transform="matrix(1,0,0,1,378.118,140.761)">
                <path d="M0,10.709C0,10.709 -3.597,3.498 -2.698,-1.868C-2.698,-1.868 -19.187,-9.683 -20.958,7.392C-20.958,7.392 -21.773,-7.9 -7.123,-7.437C7.504,-6.975 6.292,14.428 -1.613,20.392C-1.613,20.392 2.222,15.217 0,10.709" style="fill:rgb(38,50,55);fill-rule:nonzero;"/>
            </g>
            <g transform="matrix(1,0,0,1,376.629,153.383)">
                <path d="M0,-0.193C0.132,-1.56 1.673,-3.802 4.206,-3.385C6.828,-2.952 7.789,2.531 1.157,3.474C0.205,3.609 -0.275,2.66 0,-0.193" style="fill:rgb(205,122,99);fill-rule:nonzero;"/>
            </g>
            <g transform="matrix(1,0,0,1,382.395,177.542)">
                <path d="M0,-1.167C0,-1.167 -9.551,6.583 -18.443,6.458C-27.335,6.333 -30.46,-3.667 -30.46,-3.667C-30.46,-3.667 -16.669,-7.75 0,-1.167" style="fill:rgb(205,122,99);fill-rule:nonzero;"/>
            </g>
            <g transform="matrix(1,0,0,1,381.583,227)">
                <path d="M0,-52.083C0,-52.083 -15.688,-24.01 0.812,0C0.812,0 3.056,-29.61 8.487,-49.43L0,-52.083Z" style="fill:rgb(0,124,255);fill-rule:nonzero;"/>
            </g>
            <g transform="matrix(-0.981427,-0.191835,-0.191835,0.981427,336.047,219.544)">
                <path d="M-7.464,-49.192C-7.464,-49.192 -11.137,-29.657 -9.771,-21.871C-8.407,-14.084 -7.464,0.195 -7.464,0.195C-7.464,0.195 1.586,-31.756 -0.91,-47.226L-7.464,-49.192Z" style="fill:rgb(0,124,255);fill-rule:nonzero;"/>
            </g>
            <g transform="matrix(1,0,0,1,375.42,145.758)">
                <path d="M0,-6.865C0,-6.865 -6.336,-9.056 -11.92,-6.865C-17.503,-4.674 -15.982,1.109 -18.808,2.191" style="fill:none;fill-rule:nonzero;stroke:rgb(38,50,55);stroke-width:0.21px;stroke-linecap:round;stroke-linejoin:round;"/>
            </g>
            <g transform="matrix(1,0,0,1,425.75,186.51)">
                <path d="M0,-17.395L-2.625,-18.892L-12.25,-16.26L-25.292,-19.635L-28.25,-9.76C-28.25,-9.76 -28.875,1.24 -28.25,1.365C-27.625,1.49 -13.375,2.24 -13.375,2.24L-6.125,-2.385L0,-17.395Z" style="fill:rgb(225,225,225);fill-rule:nonzero;"/>
            </g>
            <g transform="matrix(1,0,0,1,397,192.376)">
                <path d="M0,-24.758L-5.751,-1.99L12,0L24.25,-3.376L30.5,-24.758L16.5,-21.126L0,-24.758Z" style="fill:rgb(0,124,255);fill-rule:nonzero;"/>
            </g>
            <g opacity="0.4">
                <g transform="matrix(-0.208296,0.978066,0.978066,0.208296,408.616,192.704)">
                    <path d="M-22,0.308L-0.397,0.308L1.354,-17.467L-22.114,-16.586L-22,0.308Z" style="fill:white;fill-rule:nonzero;"/>
                </g>
            </g>
            <g opacity="0.2">
                <g transform="matrix(-0.208334,0.978058,0.978058,0.208334,427.795,177.174)">
                    <path d="M-2.815,-15.215L18.784,-15.215L12.93,-3.937L-9.284,-2.279L-2.815,-15.215Z" style="fill:white;fill-rule:nonzero;"/>
                </g>
            </g>
            <g transform="matrix(1,0,0,1,397.917,184.695)">
                <path d="M0,28.305L8.25,12.462C8.25,12.462 7.75,9.084 8.25,5.084C8.75,1.084 8.75,0.195 11.917,0.528C15.083,0.861 19.25,0 19.75,1.167C20.25,2.333 17.083,10.908 14.75,12.476L9.901,28.305L0,28.305Z" style="fill:rgb(205,122,99);fill-rule:nonzero;"/>
            </g>
            <g transform="matrix(1,0,0,1,395.249,212.63)">
                <path d="M0,9.074C5.251,13.537 11.251,9.703 14.585,-3.13L4.251,-4.463L0,9.074Z" style="fill:rgb(0,124,255);fill-rule:nonzero;"/>
            </g>
            <g transform="matrix(-0.492865,0.870106,0.870106,0.492865,409.03,205.586)">
                <path d="M4.229,-7.952L8.51,-7.952L3.595,4.301L0.259,2.411L4.229,-7.952Z" style="fill:rgb(38,50,55);fill-rule:nonzero;"/>
            </g>
            <g transform="matrix(0.846354,0.532621,0.532621,-0.846354,290.886,183.897)">
                <path d="M2.752,-0.934L7.032,-0.934L2.118,11.318L-1.218,9.429L2.752,-0.934Z" style="fill:rgb(38,50,55);fill-rule:nonzero;"/>
            </g>
            <g transform="matrix(-0.167775,0.985825,0.985825,0.167775,427.046,287.889)">
                <path d="M-45.696,-89.656L78.286,-89.656C78.286,-89.656 75.762,-39.02 69.433,-22.786C69.433,-22.786 -17.504,-33.336 -48.547,-56.685L-45.696,-89.656Z" style="fill:rgb(0,124,255);fill-rule:nonzero;"/>
            </g>
            <g opacity="0.4">
                <g transform="matrix(-0.167775,0.985825,0.985825,0.167775,427.046,287.889)">
                    <path d="M-45.696,-89.656L78.286,-89.656C78.286,-89.656 75.762,-39.02 69.433,-22.786C69.433,-22.786 -17.504,-33.336 -48.547,-56.685L-45.696,-89.656Z" style="fill:white;fill-rule:nonzero;"/>
                </g>
            </g>
            <g transform="matrix(1,0,0,1,278.795,139.041)">
                <path d="M0,35.038C0,35.038 -2.073,32.898 -5.181,29.687C-8.275,26.462 -12.471,22.234 -16.646,17.983C-18.745,15.87 -20.844,13.756 -22.812,11.775C-24.784,9.798 -26.625,7.953 -28.203,6.372C-29.781,4.79 -31.096,3.472 -32.017,2.55C-32.479,2.09 -32.842,1.729 -33.089,1.483C-33.378,1.279 -33.779,1.418 -33.779,1.418L-32.369,0C-32.369,0 -32.506,0.402 -32.3,0.69C-32.053,0.937 -31.69,1.298 -31.228,1.758C-30.302,2.674 -28.978,3.982 -27.389,5.553C-25.8,7.124 -23.946,8.956 -21.96,10.919C-19.97,12.877 -17.846,14.966 -15.723,17.055C-11.452,21.21 -7.204,25.386 -3.964,28.465C-0.739,31.558 1.411,33.62 1.411,33.62L0,35.038Z" style="fill:rgb(38,50,55);fill-rule:nonzero;"/>
            </g>
            <g transform="matrix(1,0,0,1,317.082,410.087)">
                <path d="M0,-14.966C0,-14.966 -5.285,-3.905 -8.329,-1.77C-8.329,-1.77 -4.249,0.663 0,-4.753C5.494,-11.756 6.838,-9.8 6.838,-9.8C6.838,-9.8 6.606,-12.196 6.177,-13.369C5.351,-15.629 0,-14.966 0,-14.966" style="fill:rgb(205,122,99);fill-rule:nonzero;"/>
            </g>
            <g transform="matrix(1,0,0,1,362.313,411.041)">
                <path d="M0,-16.01C0,-16.01 -1.5,-11.916 -3.5,-7.416C-5.5,-2.916 -7.5,-1.129 -7.5,-1.129C-7.5,-1.129 -4.026,0 -2.151,-2.179C-0.276,-4.357 2.931,-12.224 6.528,-11.32C6.528,-11.32 6.265,-12.259 5.726,-13.15C5.187,-14.041 0,-16.01 0,-16.01" style="fill:rgb(205,122,99);fill-rule:nonzero;"/>
            </g>
        </g>
        <g id="Table" transform="matrix(0.467886,0,0,0.467886,281.274,303.468)">
            <g transform="matrix(0.00653523,-0.999979,-0.999979,-0.00653523,253.416,349.031)">
                <path d="M-65.353,58.466L58.897,58.466L58.844,66.593L-65.395,64.97L-65.353,58.466Z" style="fill:rgb(0,124,255);fill-rule:nonzero;"/>
            </g>
            <g opacity="0.5">
                <g transform="matrix(1,0,0,1,188.02,290)">
                    <path d="M0,124L6.51,124L7.16,24.725L7.32,0L-0.81,0L-0.65,24.725L0,124Z" style="fill:white;fill-rule:nonzero;"/>
                </g>
            </g>
            <g opacity="0.2">
                <g transform="matrix(-0.00639987,0.99998,0.99998,0.00639987,203.749,306.645)">
                    <path d="M-16.591,-8.515L8.41,-8.515L8.46,-16.325L-16.539,-16.645L-16.591,-8.515Z" style="fill-rule:nonzero;"/>
                </g>
            </g>
            <g transform="matrix(-0.0586608,-0.998278,-0.998278,0.0586608,311.521,340.531)">
                <path d="M-70.184,58.066L54.278,58.066L54.755,66.181L-69.802,64.56L-70.184,58.066Z" style="fill:rgb(0,124,255);fill-rule:nonzero;"/>
            </g>
            <g opacity="0.5">
                <g transform="matrix(1,0,0,1,251.165,290)">
                    <path d="M0,124L6.508,124L-0.355,7.365L-0.795,0L-8.925,0L-8.385,7.365L0,124Z" style="fill:white;fill-rule:nonzero;"/>
                </g>
            </g>
            <g opacity="0.2">
                <g transform="matrix(-1,0,0,1,242.24,290)">
                    <path d="M-8.57,7L-0.54,7L0,0L-8.13,0L-8.57,7Z" style="fill-rule:nonzero;"/>
                </g>
            </g>
            <g transform="matrix(0.0716401,-0.997431,-0.997431,-0.0716401,194.464,357.534)">
                <path d="M-60.841,58.88L63.727,58.88L63.144,66.986L-61.307,65.367L-60.841,58.88Z" style="fill:rgb(0,124,255);fill-rule:nonzero;"/>
            </g>
            <g opacity="0.3">
                <g transform="matrix(1,0,0,1,131.375,290)">
                    <path d="M0,124L8.385,7.365L8.925,0L0.795,0L0.355,7.365L-6.5,124L0,124Z" style="fill:white;fill-rule:nonzero;"/>
                </g>
            </g>
            <g opacity="0.2">
                <g transform="matrix(1,0,0,1,132.17,297)">
                    <path d="M0,-7L8.13,-7L7.59,0L-0.44,0L0,-7Z" style="fill-rule:nonzero;"/>
                </g>
            </g>
            <g transform="matrix(1,0,0,1,254.651,285.915)">
                <path d="M0,7.676L-126.757,7.676C-127.951,7.676 -128.919,6.708 -128.919,5.514L-128.919,0L2.162,0L2.162,5.514C2.162,6.708 1.194,7.676 0,7.676" style="fill:rgb(0,124,255);fill-rule:nonzero;"/>
            </g>
            <g opacity="0.4">
                <g transform="matrix(1,0,0,1,254.651,285.915)">
                    <path d="M0,7.676L-126.757,7.676C-127.951,7.676 -128.919,6.708 -128.919,5.514L-128.919,0L2.162,0L2.162,5.514C2.162,6.708 1.194,7.676 0,7.676" style="fill:white;fill-rule:nonzero;"/>
                </g>
            </g>
            <g opacity="0.2">
                <g transform="matrix(1,0,0,-1,0,500)">
                    <rect x="125.732" y="210.247" width="131.081" height="3.838"/>
                </g>
            </g>
            <g transform="matrix(1,0,0,1,260.61,282.592)">
                <path d="M0,4.324L-138.676,4.324C-139.87,4.324 -140.838,3.356 -140.838,2.162C-140.838,0.968 -139.87,0 -138.676,0L0,0C1.194,0 2.162,0.968 2.162,2.162C2.162,3.356 1.194,4.324 0,4.324" style="fill:rgb(0,124,255);fill-rule:nonzero;"/>
            </g>
            <g opacity="0.4">
                <g transform="matrix(1,0,0,1,260.61,282.592)">
                    <path d="M0,4.324L-138.676,4.324C-139.87,4.324 -140.838,3.356 -140.838,2.162C-140.838,0.968 -139.87,0 -138.676,0L0,0C1.194,0 2.162,0.968 2.162,2.162C2.162,3.356 1.194,4.324 0,4.324" style="fill:white;fill-rule:nonzero;"/>
                </g>
            </g>
        </g>
        <g id="Student" transform="matrix(0.467886,0,0,0.467886,281.274,303.468)">
            <g transform="matrix(-0.476143,0.879368,0.879368,0.476143,197.147,284.024)">
                <path d="M-13.563,-8.08L4.813,-8.08" style="fill:none;fill-rule:nonzero;stroke:rgb(38,50,55);stroke-width:0.84px;"/>
            </g>
            <g transform="matrix(1,0,0,1,117.125,202.072)">
                <path d="M0,44.873C0,44.873 7.909,30.803 9.205,28.053C10.5,25.303 14,5.928 14,5.928C14,5.928 13.375,4.053 13.375,3.053C13.375,2.053 14,-2.572 14,-2.572C14,-2.572 14,-2.947 16.5,-3.697C19,-4.447 21.75,-5.447 22,-4.322C22.25,-3.197 21.625,4.553 20.875,5.303C20.125,6.053 19.272,7.303 19.272,7.303C19.272,7.303 17.167,27.97 16.209,31.011C15.25,34.053 7.375,50.32 7.375,50.32L0,44.873Z" style="fill:rgb(254,138,123);fill-rule:nonzero;"/>
            </g>
            <g transform="matrix(1,0,0,1,154.431,284.247)">
                <path d="M0,-20.17C0,-20.17 19.5,-11.08 22.32,-9.945C25.14,-8.809 33.684,-8.425 33.684,-8.425C33.684,-8.425 35.52,-9.157 36.518,-9.214C37.516,-9.271 42.17,-8.912 42.17,-8.912C42.17,-8.912 42.544,-8.934 43.436,-6.481C44.328,-4.028 45.484,-1.34 44.375,-1.026C43.267,-0.712 35.493,-0.892 34.702,-1.597L33.91,-2.303C33.91,-2.303 22.86,0 19.768,-0.782C16.677,-1.565 -5.016,-8.495 -5.016,-8.495L0,-20.17Z" style="fill:rgb(254,138,123);fill-rule:nonzero;"/>
            </g>
            <g transform="matrix(-0.640044,-0.768339,-0.768339,0.640044,107.844,252.132)">
                <path d="M-10.613,-16.962C-12.669,-14.664 -14.333,-11.053 -15.287,-7.433C-17.173,-0.37 -16.385,6.717 -10.613,4.005C-1.884,-0.078 0.455,-15.549 0.455,-15.549L-10.613,-16.962Z" style="fill:rgb(0,124,255);fill-rule:nonzero;"/>
            </g>
            <g opacity="0.2">
                <g transform="matrix(1,0,0,1,127.67,259.12)">
                    <path d="M0,-9.69C-0.45,-6.64 -2.16,-3.05 -4.33,0C-5.25,-1.04 -5.86,-2.27 -5.67,-3.62C-5.09,-7.79 0,-9.69 0,-9.69" style="fill-rule:nonzero;"/>
                </g>
            </g>
            <g transform="matrix(1,0,0,1,148.6,225.42)">
                <path d="M0,17.02C-0.57,19.12 -1.74,20.92 -3.3,22.33C-5.58,24.41 -8.68,25.63 -11.85,25.69C-14.82,25.74 -17.85,24.78 -20.33,22.54C-24.92,18.4 -24.78,13.64 -25.33,5.54C-25.88,-2.55 -17.08,-8.72 -8.17,-5.49C0.74,-2.26 2,9.75 0,17.02" style="fill:rgb(254,138,123);fill-rule:nonzero;"/>
            </g>
            <g transform="matrix(-0.859695,0.510807,0.510807,0.859695,155.549,225.427)">
                <path d="M9.952,-18.299C9.952,-18.299 3.433,-17.077 1.524,-11.726C-0.386,-6.375 4.299,1.02 9.952,2.459C9.952,2.459 8.219,1.744 9.161,-3.033C10.103,-7.809 9.952,-18.299 9.952,-18.299" style="fill:rgb(38,50,55);fill-rule:nonzero;"/>
            </g>
            <g opacity="0.2">
                <g transform="matrix(1,0,0,1,145.3,251.11)">
                    <path d="M0,-3.36C-2.28,-1.28 -5.38,-0.06 -8.55,0C-7.28,-2.54 -5.8,-3.36 -5.8,-3.36C-3.92,-2.4 -1.59,-2.85 0,-3.36" style="fill-rule:nonzero;"/>
                </g>
            </g>
            <g transform="matrix(1,0,0,1,146.9,390.42)">
                <path d="M0,-10.17L-1.06,-3.54L-2.03,2.58L-10.9,2.58L-10.13,-5.25L-9.4,-12.75L0,-10.17Z" style="fill:rgb(254,138,123);fill-rule:nonzero;"/>
            </g>
            <g transform="matrix(1,0,0,1,144.366,398.423)">
                <path d="M0,-8.898L-9,-9.459C-9.313,-9.493 -9.594,-9.267 -9.628,-8.954L-9.628,-8.944L-10.511,-1.844C-10.56,-1.068 -9.975,-0.397 -9.2,-0.34C-6.056,-0.195 -4.548,-0.283 -0.586,-0.067C1.845,0.078 6.636,0.595 9.991,0.27C13.345,-0.054 12.934,-3.361 11.486,-3.52C8.05,-3.91 3.501,-6.435 1.351,-8.35C0.974,-8.678 0.499,-8.87 0,-8.898" style="fill:rgb(38,50,55);fill-rule:nonzero;"/>
            </g>
            <g transform="matrix(1,0,0,1,148.393,390.347)">
                <path d="M0,-0.792C-0.512,-1.03 -1.887,-0.441 -2.855,0.092C-1.439,0.464 -0.383,0.485 0.019,0.14C0.189,-0.033 0.255,-0.283 0.194,-0.517C0.182,-0.637 0.109,-0.741 0,-0.792M-1.267,0.72C-1.988,0.658 -2.7,0.517 -3.39,0.298C-3.462,0.283 -3.516,0.222 -3.523,0.149C-3.53,0.076 -3.498,0.005 -3.439,-0.039C-3.171,-0.202 -0.802,-1.607 0.159,-1.167C0.379,-1.062 0.529,-0.851 0.558,-0.608C0.667,-0.238 0.552,0.163 0.263,0.42C-0.191,0.708 -0.737,0.815 -1.267,0.72" style="fill:rgb(0,124,255);fill-rule:nonzero;"/>
            </g>
            <g transform="matrix(1,0,0,1,146.344,390.237)">
                <path d="M0,-2.706C-0.151,-2.717 -0.299,-2.664 -0.409,-2.561C-0.924,-2.126 -1.063,-0.809 -1.09,-0.054C-0.363,-0.598 0.477,-1.813 0.427,-2.401C0.418,-2.511 0.356,-2.646 0.091,-2.694L0,-2.706ZM-1.301,0.415C-1.326,0.427 -1.354,0.43 -1.381,0.422C-1.433,0.387 -1.467,0.331 -1.474,0.269C-1.47,0.199 -1.508,-2.147 -0.657,-2.881C-0.429,-3.067 -0.131,-3.144 0.158,-3.091C0.487,-3.06 0.752,-2.809 0.802,-2.483C0.927,-1.6 -0.372,0.005 -1.199,0.427C-1.233,0.438 -1.27,0.434 -1.301,0.415" style="fill:rgb(0,124,255);fill-rule:nonzero;"/>
            </g>
            <g opacity="0.2">
                <g transform="matrix(-0.157874,0.987459,0.987459,0.157874,143.035,387.596)">
                    <path d="M-7.864,2.657L-1.15,2.657L-1.407,-6.569L-8.928,-7.033L-7.864,2.657Z" style="fill-rule:nonzero;"/>
                </g>
            </g>
            <g transform="matrix(1,0,0,1,157.667,376.455)">
                <path d="M0,-46.572C-4.109,-51.991 -14.738,-54.744 -23.292,-56.117L-26.169,-34.666C-20.897,-33.58 -18.708,-30.658 -18.417,-29.455C-17.024,-23.71 -23.667,6.212 -23.667,6.212L-9.856,9.545C-9.856,9.545 7.333,-36.9 0,-46.572" style="fill:rgb(38,50,55);fill-rule:nonzero;"/>
            </g>
            <g opacity="0.2">
                <g transform="matrix(1,0,0,1,157.667,376.455)">
                    <path d="M0,-46.572C-4.109,-51.991 -14.738,-54.744 -23.292,-56.117L-26.169,-34.666C-20.897,-33.58 -18.708,-30.658 -18.417,-29.455C-17.024,-23.71 -23.667,6.212 -23.667,6.212L-9.856,9.545C-9.856,9.545 7.333,-36.9 0,-46.572" style="fill-rule:nonzero;"/>
                </g>
            </g>
            <g transform="matrix(1,0,0,1,171.9,390.42)">
                <path d="M0,-10.17L-1.06,-3.54L-2.03,2.58L-10.9,2.58L-10.13,-5.25L-9.4,-12.75L0,-10.17Z" style="fill:rgb(254,138,123);fill-rule:nonzero;"/>
            </g>
            <g transform="matrix(1,0,0,1,169.366,398.423)">
                <path d="M0,-8.898L-9,-9.459C-9.313,-9.493 -9.594,-9.267 -9.628,-8.954L-9.628,-8.944L-10.511,-1.844C-10.56,-1.068 -9.975,-0.397 -9.2,-0.34C-6.056,-0.195 -4.548,-0.283 -0.586,-0.067C1.845,0.078 6.636,0.595 9.991,0.27C13.345,-0.054 12.934,-3.361 11.486,-3.52C8.05,-3.91 3.501,-6.435 1.351,-8.35C0.974,-8.678 0.499,-8.87 0,-8.898" style="fill:rgb(38,50,55);fill-rule:nonzero;"/>
            </g>
            <g transform="matrix(1,0,0,1,173.393,390.347)">
                <path d="M0,-0.792C-0.512,-1.03 -1.887,-0.441 -2.855,0.092C-1.439,0.464 -0.383,0.485 0.019,0.14C0.189,-0.033 0.255,-0.283 0.194,-0.517C0.182,-0.637 0.109,-0.741 0,-0.792M-1.267,0.72C-1.988,0.658 -2.7,0.517 -3.39,0.298C-3.462,0.283 -3.516,0.222 -3.523,0.149C-3.53,0.076 -3.498,0.005 -3.439,-0.039C-3.171,-0.202 -0.802,-1.607 0.159,-1.167C0.379,-1.062 0.529,-0.851 0.558,-0.608C0.667,-0.238 0.552,0.163 0.263,0.42C-0.191,0.708 -0.737,0.815 -1.267,0.72" style="fill:rgb(0,124,255);fill-rule:nonzero;"/>
            </g>
            <g transform="matrix(1,0,0,1,171.344,390.237)">
                <path d="M0,-2.706C-0.151,-2.717 -0.299,-2.664 -0.409,-2.561C-0.924,-2.126 -1.063,-0.809 -1.09,-0.054C-0.363,-0.598 0.477,-1.813 0.427,-2.401C0.418,-2.511 0.356,-2.646 0.091,-2.694L0,-2.706ZM-1.301,0.415C-1.326,0.427 -1.354,0.43 -1.381,0.422C-1.433,0.387 -1.467,0.331 -1.474,0.269C-1.47,0.199 -1.508,-2.147 -0.657,-2.881C-0.429,-3.067 -0.131,-3.144 0.158,-3.091C0.487,-3.06 0.752,-2.809 0.802,-2.483C0.927,-1.6 -0.372,0.005 -1.199,0.427C-1.233,0.438 -1.27,0.434 -1.301,0.415" style="fill:rgb(0,124,255);fill-rule:nonzero;"/>
            </g>
            <g opacity="0.2">
                <g transform="matrix(-0.157874,0.987459,0.987459,0.157874,168.035,387.596)">
                    <path d="M-7.864,2.657L-1.15,2.657L-1.407,-6.569L-8.928,-7.033L-7.864,2.657Z" style="fill-rule:nonzero;"/>
                </g>
            </g>
            <g transform="matrix(1,0,0,1,128.455,265.804)">
                <path d="M0,-19.176C0,-14.419 -0.553,-9.892 -3.485,-7.776C0.565,-4.316 5.09,-1.454 9.952,0.722C15.159,-2.961 12.751,-6.009 12.751,-6.009C8.203,-8.509 9.62,-14.33 11.045,-18.054C11.045,-18.054 9.926,-19.863 3.545,-19.888C0.711,-19.898 0,-19.176 0,-19.176" style="fill:rgb(254,138,123);fill-rule:nonzero;"/>
            </g>
            <g transform="matrix(1,0,0,1,103.91,341.49)">
                <path d="M0,-26.304C0,-26.304 -9.303,0 17.06,0C43.423,0 45.55,-10.278 43.32,-22.384L0,-26.304Z" style="fill:rgb(38,50,55);fill-rule:nonzero;"/>
            </g>
            <g transform="matrix(1,0,0,1,147.23,386)">
                <path d="M0,-66.969C0,-66.969 28.103,-65.789 35.437,-56.117C42.77,-46.446 25.581,0 25.581,0L11.77,-3.333C11.77,-3.333 19.361,-35.024 16.502,-39.119C13.643,-43.214 -1.903,-43.475 -22.9,-44.571C-43.897,-45.667 0,-66.969 0,-66.969" style="fill:rgb(38,50,55);fill-rule:nonzero;"/>
            </g>
            <g transform="matrix(1,0,0,1,122.375,259.104)">
                <path d="M0,-1.854L2.595,-8C2.595,-8 17.545,-7.462 22.085,-0.658C26.625,6.146 0,-1.854 0,-1.854" style="fill:rgb(0,124,255);fill-rule:nonzero;"/>
            </g>
            <g transform="matrix(1,0,0,1,152.87,304.814)">
                <path d="M0,-38.208C0.45,-30.518 0,-14.718 -5.64,14.292L-48.96,10.372C-48.68,4.242 -39.507,-16.76 -41.457,-44.42C-41.753,-48.535 -38.657,-52.11 -34.542,-52.406C-34.457,-52.412 -34.372,-52.417 -34.287,-52.42C-32.157,-52.5 -19.169,-48.665 -13.07,-47.748C-10.72,-47.318 -8.44,-46.748 -6.5,-46.198C-2.852,-45.192 -0.243,-41.984 0,-38.208" style="fill:rgb(0,124,255);fill-rule:nonzero;"/>
            </g>
            <g opacity="0.2">
                <g transform="matrix(1,0,0,1,152.87,304.814)">
                    <path d="M0,-38.208C0.45,-30.518 0,-14.718 -5.64,14.292L-48.96,10.372C-48.68,4.242 -39.507,-16.76 -41.457,-44.42C-41.753,-48.535 -38.657,-52.11 -34.542,-52.406C-34.457,-52.412 -34.372,-52.417 -34.287,-52.42C-32.157,-52.5 -19.169,-48.665 -13.07,-47.748C-10.72,-47.318 -8.44,-46.748 -6.5,-46.198C-2.852,-45.192 -0.243,-41.984 0,-38.208" style="fill-rule:nonzero;"/>
                </g>
            </g>
            <g transform="matrix(-0.76543,0.64352,0.64352,0.76543,169.802,272.928)">
                <path d="M8.725,-26.034C11.706,-29.886 21.062,-19.573 20.989,-14.286C20.917,-8.999 8.725,5.17 8.725,5.17L-1.936,-2.197C-1.936,-2.197 3.511,-19.294 8.725,-26.034" style="fill:rgb(0,124,255);fill-rule:nonzero;"/>
            </g>
            <g transform="matrix(0.901304,0.433187,0.433187,-0.901304,120.541,240.855)">
                <path d="M7.741,-2.144C7.741,-2.144 1.528,-3.275 -6.686,7.277C-14.901,17.826 -6.197,28.482 7.741,32.037C21.68,35.593 24.223,14.403 16.524,2.077C16.524,2.077 13.563,-1.352 7.741,-2.144" style="fill:rgb(38,50,55);fill-rule:nonzero;"/>
            </g>
            <g transform="matrix(-0.201457,0.979497,0.979497,0.201457,145.535,233.446)">
                <path d="M2.751,-3.053C4.271,-2.394 5.481,-1.182 6.137,0.339C6.905,2.263 4.931,3.225 2.751,2.705C0.808,2.224 -1.98,0.64 -1.806,-1.295C-1.633,-3.23 0.769,-3.94 2.751,-3.053" style="fill:rgb(254,138,123);fill-rule:nonzero;"/>
            </g>
            <g transform="matrix(1,0,0,1,183.746,293.591)">
                <path d="M0,-7.676L0,-3.42C0,-1.531 1.531,0 3.419,0L71.898,0C73.092,0 74.06,-0.968 74.06,-2.162L74.06,-7.676L0,-7.676Z" style="fill:rgb(0,124,255);fill-rule:nonzero;"/>
            </g>
            <g opacity="0.6">
                <g transform="matrix(1,0,0,1,183.746,293.591)">
                    <path d="M0,-7.676L0,-3.42C0,-1.531 1.531,0 3.419,0L71.898,0C73.092,0 74.06,-0.968 74.06,-2.162L74.06,-7.676L0,-7.676Z" style="fill:white;fill-rule:nonzero;"/>
                </g>
            </g>
            <g opacity="0.2">
                <g transform="matrix(1,0,0,1,0,75.668)">
                    <rect x="183.746" y="210.247" width="74.06" height="3.838"/>
                </g>
            </g>
            <g transform="matrix(1,0,0,1,261.48,286.916)">
                <path d="M0,-4.324L-79.574,-4.324C-80.769,-4.324 -81.737,-3.356 -81.737,-2.162C-81.737,-0.968 -80.769,0 -79.574,0L0.123,0C1.391,0 2.404,-1.091 2.274,-2.385C2.162,-3.51 1.131,-4.324 0,-4.324" style="fill:rgb(0,124,255);fill-rule:nonzero;"/>
            </g>
            <g opacity="0.6">
                <g transform="matrix(1,0,0,1,261.48,286.916)">
                    <path d="M0,-4.324L-79.574,-4.324C-80.769,-4.324 -81.737,-3.356 -81.737,-2.162C-81.737,-0.968 -80.769,0 -79.574,0L0.123,0C1.391,0 2.404,-1.091 2.274,-2.385C2.162,-3.51 1.131,-4.324 0,-4.324" style="fill:white;fill-rule:nonzero;"/>
                </g>
            </g>
        </g>
        <g id="Chair" transform="matrix(0.467886,0,0,0.467886,281.274,303.468)">
            <g transform="matrix(1,0,0,1,125.213,346)">
                <path d="M0,68L6.246,68L7.466,15.57L7.827,0L-1.573,0L-1.213,15.57L0,68Z" style="fill:rgb(0,124,255);fill-rule:nonzero;"/>
            </g>
            <g opacity="0.4">
                <g transform="matrix(1,0,0,1,125.213,346)">
                    <path d="M0,68L6.246,68L7.466,15.57L7.827,0L-1.573,0L-1.213,15.57L0,68Z" style="fill:white;fill-rule:nonzero;"/>
                </g>
            </g>
            <g opacity="0.2">
                <g transform="matrix(-0.0224943,0.999747,0.999747,0.0224943,136.232,358.879)">
                    <path d="M-12.804,-3.481L3.2,-3.481L3.396,-12.159L-12.592,-12.879L-12.804,-3.481Z" style="fill-rule:nonzero;"/>
                </g>
            </g>
            <g transform="matrix(-0.0589407,-0.998261,-0.998261,0.0589407,188.345,372.529)">
                <path d="M-39.809,29.372L27.207,29.372L27.689,37.528L-39.421,35.951L-39.809,29.372Z" style="fill:rgb(0,124,255);fill-rule:nonzero;"/>
            </g>
            <g opacity="0.5">
                <g transform="matrix(1,0,0,1,154.771,347)">
                    <path d="M0,67L6.594,67L3.103,7.7L2.654,0L-5.517,0L-4.887,7.7L0,67Z" style="fill:white;fill-rule:nonzero;"/>
                </g>
            </g>
            <g opacity="0.2">
                <g transform="matrix(0.0785069,0.996914,0.996914,-0.0785069,157.213,346.389)">
                    <path d="M-0.016,-7.983L8.009,-7.983L8.636,-0.017L0.625,0.162L-0.016,-7.983Z" style="fill-rule:nonzero;"/>
                </g>
            </g>
            <g transform="matrix(0.0823797,-0.996601,-0.996601,-0.0823797,134.744,382.777)">
                <path d="M-33.823,30.166L33.306,30.166L32.632,38.308L-34.366,36.734L-33.823,30.166Z" style="fill:rgb(0,124,255);fill-rule:nonzero;"/>
            </g>
            <g opacity="0.5">
                <g transform="matrix(1,0,0,1,101.905,347)">
                    <path d="M0,67L4.886,7.7L5.517,0L-2.654,0L-3.104,7.7L-6.594,67L0,67Z" style="fill:white;fill-rule:nonzero;"/>
                </g>
            </g>
            <g opacity="0.2">
                <g transform="matrix(-0.0785069,0.996914,0.996914,0.0785069,106.76,355.611)">
                    <path d="M-8.636,-0.017L-0.611,-0.017L0.016,-7.983L-7.995,-8.162L-8.636,-0.017Z" style="fill-rule:nonzero;"/>
                </g>
            </g>
            <g transform="matrix(1,0,0,1,156.798,350.022)">
                <path d="M0,-11.689L-56.921,-11.689C-59.682,-11.689 -61.921,-9.45 -61.921,-6.689L-61.921,0L5,0L5,-6.689C5,-9.45 2.761,-11.689 0,-11.689" style="fill:rgb(0,124,255);fill-rule:nonzero;"/>
            </g>
            <g transform="matrix(-0.13568,-0.990753,-0.990753,0.13568,159.051,302.858)">
                <rect x="-38.592" y="33.666" width="72.324" height="5.001" style="fill:rgb(0,124,255);"/>
            </g>
            <g transform="matrix(-0.13568,-0.990753,-0.990753,0.13568,128.051,302.858)">
                <rect x="-38.592" y="33.666" width="72.324" height="5.001" style="fill:rgb(0,124,255);"/>
            </g>
            <g opacity="0.4">
                <g transform="matrix(-0.13568,-0.990753,-0.990753,0.13568,159.051,302.858)">
                    <rect x="-38.592" y="33.666" width="72.324" height="5.001" style="fill:white;"/>
                </g>
            </g>
            <g opacity="0.4">
                <g transform="matrix(-0.13568,-0.990753,-0.990753,0.13568,128.051,302.858)">
                    <rect x="-38.592" y="33.666" width="72.324" height="5.001" style="fill:white;"/>
                </g>
            </g>
            <g transform="matrix(1,0,0,1,162.993,350.023)">
                <path d="M0,-5.845L-69.311,-5.845C-70.422,-5.845 -71.322,-4.945 -71.322,-3.834L-71.322,-2.012C-71.322,-0.901 -70.422,0 -69.311,0L0,0C1.111,0 2.011,-0.901 2.011,-2.012L2.011,-3.834C2.011,-4.945 1.111,-5.845 0,-5.845" style="fill:rgb(0,124,255);fill-rule:nonzero;"/>
            </g>
            <g opacity="0.6">
                <g transform="matrix(1,0,0,1,162.993,350.023)">
                    <path d="M0,-5.845L-69.311,-5.845C-70.422,-5.845 -71.322,-4.945 -71.322,-3.834L-71.322,-2.012C-71.322,-0.901 -70.422,0 -69.311,0L0,0C1.111,0 2.011,-0.901 2.011,-2.012L2.011,-3.834C2.011,-4.945 1.111,-5.845 0,-5.845" style="fill:white;fill-rule:nonzero;"/>
                </g>
            </g>
            <g transform="matrix(-1,0,0,1,80.0005,270.53)">
                <path d="M-48.049,27.759L-3.555,27.759L0,0L-44.493,0L-48.049,27.759Z" style="fill:rgb(0,124,255);fill-rule:nonzero;"/>
            </g>
            <g opacity="0.6">
                <g transform="matrix(-1,0,0,1,80.0005,270.53)">
                    <path d="M-48.049,27.759L-3.555,27.759L0,0L-44.493,0L-48.049,27.759Z" style="fill:white;fill-rule:nonzero;"/>
                </g>
            </g>
        </g>
    </g>
</svg>
