<?xml version="1.0" encoding="UTF-8" standalone="no"?>
<!DOCTYPE svg PUBLIC "-//W3C//DTD SVG 1.1//EN" "http://www.w3.org/Graphics/SVG/1.1/DTD/svg11.dtd">
<svg width="100%" height="100%" viewBox="0 0 211 211" version="1.1" xmlns="http://www.w3.org/2000/svg" xmlns:xlink="http://www.w3.org/1999/xlink" xml:space="preserve" xmlns:serif="http://www.serif.com/" style="fill-rule:evenodd;clip-rule:evenodd;stroke-linejoin:round;stroke-miterlimit:2;">
    <g transform="matrix(7.49602,-1.11022e-16,1.38778e-16,7.49602,-4272.63,-3242.87)">
        <path id="Alarm--small-" serif:id="Alarm (small)" d="M587,456.785C586.9,458.485 585.7,459.785 584,459.785C582.3,459.785 581,458.485 581,456.785L587,456.785ZM595.5,453.885C595.3,453.785 595.2,453.685 595,453.685C594.1,453.285 593.4,452.285 593,451.485C592.3,450.385 592,449.085 592,447.785L592,443.785C592,439.685 588.9,436.385 585,435.885L585,434.785C585,434.185 584.6,433.785 584,433.785C583.4,433.785 583,434.185 583,434.785L583,435.885C579.1,436.385 576,439.785 576,443.785L576,447.785C576,448.985 575.7,450.185 575.2,451.185C574.8,451.985 574.3,452.685 573.6,453.285C573.3,453.585 572.9,453.685 572.6,453.885C572.3,453.985 572.1,454.285 572.1,454.685C572.1,455.285 572.5,455.685 573.1,455.685L595.1,455.685C595.7,455.685 596.1,455.285 596.1,454.685C596,454.485 595.8,454.085 595.5,453.885Z"/>
    </g>
</svg>
