<?xml version="1.0" encoding="UTF-8" standalone="no"?>
<!DOCTYPE svg PUBLIC "-//W3C//DTD SVG 1.1//EN" "http://www.w3.org/Graphics/SVG/1.1/DTD/svg11.dtd">
<svg width="100%" height="100%" viewBox="0 0 211 211" version="1.1" xmlns="http://www.w3.org/2000/svg" xmlns:xlink="http://www.w3.org/1999/xlink" xml:space="preserve" xmlns:serif="http://www.serif.com/" style="fill-rule:evenodd;clip-rule:evenodd;stroke-linejoin:round;stroke-miterlimit:2;">
    <g transform="matrix(3.85016,-8.32667e-17,4.16334e-17,3.88683,-1876.45,-691.488)">
        <path id="Person" d="M515,180C501.2,180 490,191.2 490,205C490,218.8 501.2,230 515,230C528.8,230 540,218.8 540,205C540,191.2 528.8,180 515,180ZM530.269,222.199C535.012,217.985 538,211.841 538,205C538,192.3 527.7,182 515,182C502.3,182 492,192.3 492,205C492,211.841 494.988,217.985 499.731,222.199C502.446,222.115 506.159,222.8 509.516,219.025C510.498,217.921 510.292,214.903 510,214C508.819,213.419 508.056,211.685 508,208C506.902,208.017 506.198,207.629 506,207C505.29,204.738 504.383,202.338 506,200C503.819,191.728 509,187 515,187C521,187 526.181,191.728 524,200C525.617,202.338 524.71,204.738 524,207C523.802,207.629 523.098,208.017 522,208C521.944,211.685 521.181,213.419 520,214C519.708,214.903 519.502,217.921 520.484,219.025C523.841,222.8 527.554,222.115 530.269,222.199Z" style="fill:rgb(205,206,208);"/>
    </g>
</svg>
